<?xml version="1.0" encoding="UTF-8"?>
<svg xmlns="http://www.w3.org/2000/svg" xmlns:xlink="http://www.w3.org/1999/xlink" width="79px" height="79px" viewBox="0 0 79 79" version="1.1">
<defs>
<linearGradient id="linear0" gradientUnits="userSpaceOnUse" x1="0.499733" y1="-0.000235525" x2="0.499733" y2="0.999899" gradientTransform="matrix(78.929688,0,0,78.925781,0.03125,0.03125)">
<stop offset="0" style="stop-color:rgb(97.647059%,66.666667%,29.411765%);stop-opacity:1;"/>
<stop offset="1" style="stop-color:rgb(96.862745%,57.647059%,10.196078%);stop-opacity:1;"/>
</linearGradient>
</defs>
<g id="surface1">
<path style=" stroke:none;fill-rule:nonzero;fill:url(#linear0);" d="M 77.820312 49.050781 C 72.539062 70.222656 51.089844 83.09375 29.949219 77.816406 C 8.777344 72.539062 -4.09375 51.089844 1.183594 29.949219 C 6.460938 8.777344 27.878906 -4.09375 49.054688 1.183594 C 70.195312 6.429688 83.097656 27.878906 77.820312 49.050781 Z M 77.820312 49.050781 "/>
<path style=" stroke:none;fill-rule:nonzero;fill:rgb(100%,100%,100%);fill-opacity:1;" d="M 58.308594 34.578125 C 59.078125 29.332031 55.097656 26.492188 49.605469 24.609375 L 51.394531 17.480469 L 47.074219 16.402344 L 45.347656 23.34375 C 44.203125 23.066406 43.03125 22.789062 41.859375 22.542969 L 43.585938 15.570312 L 39.265625 14.488281 L 37.507812 21.585938 C 36.550781 21.371094 35.625 21.152344 34.730469 20.9375 L 34.730469 20.90625 L 28.742188 19.425781 L 27.601562 24.054688 C 27.601562 24.054688 30.8125 24.796875 30.75 24.828125 C 32.507812 25.257812 32.816406 26.429688 32.753906 27.355469 L 30.71875 35.472656 C 30.84375 35.503906 30.996094 35.535156 31.183594 35.628906 C 31.027344 35.597656 30.875 35.566406 30.71875 35.503906 L 27.878906 46.859375 C 27.664062 47.382812 27.109375 48.1875 25.90625 47.878906 C 25.9375 47.941406 22.757812 47.105469 22.757812 47.105469 L 20.597656 52.074219 L 26.246094 53.496094 C 27.292969 53.773438 28.3125 54.019531 29.332031 54.296875 L 27.539062 61.488281 L 31.859375 62.566406 L 33.652344 55.4375 C 34.824219 55.746094 35.996094 56.054688 37.105469 56.332031 L 35.347656 63.429688 L 39.667969 64.511719 L 41.457031 57.320312 C 48.863281 58.710938 54.417969 58.15625 56.734375 51.457031 C 58.617188 46.089844 56.640625 42.972656 52.753906 40.933594 C 55.621094 40.285156 57.75 38.40625 58.308594 34.578125 Z M 48.402344 48.464844 C 47.074219 53.835938 38 50.933594 35.070312 50.191406 L 37.445312 40.65625 C 40.378906 41.398438 49.820312 42.847656 48.402344 48.464844 Z M 49.757812 34.484375 C 48.523438 39.390625 40.996094 36.890625 38.558594 36.273438 L 40.71875 27.632812 C 43.15625 28.25 51.023438 29.394531 49.757812 34.484375 Z M 49.757812 34.484375 "/>
</g>
</svg>
